<?xml version="1.0" encoding="UTF-8" ?>
<svg version="1.1" width="32" height="32" xmlns="http://www.w3.org/2000/svg" shape-rendering="crispEdges">
<rect x="14" y="2" width="4" height="2" fill="#595652" />
<rect x="14" y="4" width="4" height="1" fill="#797A7A" />
<rect x="7" y="5" width="2" height="2" fill="#595652" />
<rect x="13" y="5" width="6" height="1" fill="#696A6A" />
<rect x="23" y="5" width="2" height="2" fill="#595652" />
<rect x="6" y="6" width="1" height="3" fill="#595652" />
<rect x="9" y="6" width="1" height="1" fill="#797A7A" />
<rect x="11" y="6" width="4" height="1" fill="#696A6A" />
<rect x="15" y="6" width="1" height="1" fill="#797A7A" />
<rect x="16" y="6" width="3" height="1" fill="#696A6A" />
<rect x="19" y="6" width="1" height="1" fill="#797A7A" />
<rect x="20" y="6" width="1" height="4" fill="#696A6A" />
<rect x="22" y="6" width="1" height="1" fill="#797A7A" />
<rect x="25" y="6" width="1" height="3" fill="#595652" />
<rect x="5" y="7" width="1" height="2" fill="#595652" />
<rect x="7" y="7" width="1" height="1" fill="#595652" />
<rect x="8" y="7" width="1" height="1" fill="#797A7A" />
<rect x="9" y="7" width="4" height="2" fill="#696A6A" />
<rect x="13" y="7" width="1" height="1" fill="#626363" />
<rect x="14" y="7" width="4" height="1" fill="#696A6A" />
<rect x="18" y="7" width="1" height="1" fill="#626363" />
<rect x="19" y="7" width="1" height="2" fill="#696A6A" />
<rect x="21" y="7" width="2" height="4" fill="#696A6A" />
<rect x="23" y="7" width="1" height="1" fill="#797A7A" />
<rect x="24" y="7" width="1" height="1" fill="#595652" />
<rect x="26" y="7" width="1" height="2" fill="#595652" />
<rect x="7" y="8" width="1" height="1" fill="#797A7A" />
<rect x="8" y="8" width="1" height="9" fill="#696A6A" />
<rect x="13" y="8" width="1" height="2" fill="#696A6A" />
<rect x="14" y="8" width="4" height="1" fill="#797A7A" />
<rect x="18" y="8" width="1" height="1" fill="#696A6A" />
<rect x="23" y="8" width="1" height="6" fill="#696A6A" />
<rect x="24" y="8" width="1" height="1" fill="#797A7A" />
<rect x="6" y="9" width="1" height="1" fill="#797A7A" />
<rect x="7" y="9" width="1" height="3" fill="#696A6A" />
<rect x="9" y="9" width="1" height="5" fill="#696A6A" />
<rect x="10" y="9" width="1" height="1" fill="#797A7A" />
<rect x="11" y="9" width="2" height="1" fill="#696A6A" />
<rect x="14" y="9" width="4" height="2" fill="#626363" />
<rect x="18" y="9" width="2" height="1" fill="#797A7A" />
<rect x="24" y="9" width="1" height="1" fill="#696A6A" />
<rect x="25" y="9" width="1" height="1" fill="#797A7A" />
<rect x="10" y="10" width="2" height="1" fill="#696A6A" />
<rect x="12" y="10" width="2" height="2" fill="#626363" />
<rect x="18" y="10" width="2" height="2" fill="#626363" />
<rect x="20" y="10" width="1" height="1" fill="#797A7A" />
<rect x="24" y="10" width="1" height="1" fill="#626363" />
<rect x="6" y="11" width="1" height="2" fill="#696A6A" />
<rect x="10" y="11" width="1" height="1" fill="#696A6A" />
<rect x="11" y="11" width="1" height="3" fill="#626363" />
<rect x="20" y="11" width="1" height="3" fill="#626363" />
<rect x="21" y="11" width="1" height="1" fill="#797A7A" />
<rect x="22" y="11" width="1" height="1" fill="#696A6A" />
<rect x="24" y="11" width="2" height="5" fill="#696A6A" />
<rect x="7" y="12" width="1" height="1" fill="#626363" />
<rect x="10" y="12" width="1" height="8" fill="#626363" />
<rect x="21" y="12" width="1" height="8" fill="#626363" />
<rect x="22" y="12" width="1" height="2" fill="#797A7A" />
<rect x="5" y="13" width="1" height="3" fill="#696A6A" />
<rect x="6" y="13" width="1" height="1" fill="#797A7A" />
<rect x="7" y="13" width="1" height="6" fill="#696A6A" />
<rect x="26" y="13" width="1" height="6" fill="#696A6A" />
<rect x="2" y="14" width="2" height="4" fill="#595652" />
<rect x="4" y="14" width="1" height="4" fill="#797A7A" />
<rect x="6" y="14" width="1" height="7" fill="#696A6A" />
<rect x="9" y="14" width="1" height="4" fill="#626363" />
<rect x="22" y="14" width="1" height="4" fill="#626363" />
<rect x="23" y="14" width="1" height="4" fill="#797A7A" />
<rect x="27" y="14" width="1" height="4" fill="#797A7A" />
<rect x="28" y="14" width="2" height="4" fill="#595652" />
<rect x="5" y="16" width="1" height="1" fill="#626363" />
<rect x="24" y="16" width="1" height="7" fill="#696A6A" />
<rect x="25" y="16" width="1" height="1" fill="#797A7A" />
<rect x="5" y="17" width="1" height="2" fill="#696A6A" />
<rect x="8" y="17" width="1" height="1" fill="#626363" />
<rect x="25" y="17" width="1" height="4" fill="#696A6A" />
<rect x="8" y="18" width="2" height="3" fill="#696A6A" />
<rect x="11" y="18" width="1" height="4" fill="#626363" />
<rect x="20" y="18" width="1" height="3" fill="#626363" />
<rect x="22" y="18" width="2" height="4" fill="#696A6A" />
<rect x="7" y="19" width="1" height="1" fill="#626363" />
<rect x="7" y="20" width="1" height="3" fill="#696A6A" />
<rect x="10" y="20" width="1" height="1" fill="#797A7A" />
<rect x="12" y="20" width="2" height="3" fill="#626363" />
<rect x="18" y="20" width="2" height="2" fill="#626363" />
<rect x="21" y="20" width="1" height="5" fill="#696A6A" />
<rect x="8" y="21" width="1" height="1" fill="#797A7A" />
<rect x="9" y="21" width="2" height="2" fill="#696A6A" />
<rect x="14" y="21" width="4" height="2" fill="#626363" />
<rect x="20" y="21" width="1" height="5" fill="#696A6A" />
<rect x="6" y="22" width="1" height="1" fill="#797A7A" />
<rect x="8" y="22" width="1" height="2" fill="#696A6A" />
<rect x="11" y="22" width="1" height="1" fill="#797A7A" />
<rect x="18" y="22" width="2" height="1" fill="#696A6A" />
<rect x="22" y="22" width="1" height="1" fill="#797A7A" />
<rect x="23" y="22" width="1" height="2" fill="#696A6A" />
<rect x="25" y="22" width="1" height="1" fill="#797A7A" />
<rect x="5" y="23" width="2" height="2" fill="#595652" />
<rect x="7" y="23" width="1" height="1" fill="#797A7A" />
<rect x="9" y="23" width="1" height="1" fill="#626363" />
<rect x="10" y="23" width="4" height="2" fill="#696A6A" />
<rect x="14" y="23" width="2" height="1" fill="#626363" />
<rect x="16" y="23" width="3" height="3" fill="#696A6A" />
<rect x="19" y="23" width="1" height="1" fill="#626363" />
<rect x="22" y="23" width="1" height="2" fill="#696A6A" />
<rect x="24" y="23" width="1" height="1" fill="#797A7A" />
<rect x="25" y="23" width="2" height="2" fill="#595652" />
<rect x="7" y="24" width="1" height="3" fill="#595652" />
<rect x="8" y="24" width="1" height="1" fill="#797A7A" />
<rect x="9" y="24" width="1" height="1" fill="#696A6A" />
<rect x="14" y="24" width="2" height="3" fill="#696A6A" />
<rect x="19" y="24" width="1" height="2" fill="#696A6A" />
<rect x="23" y="24" width="1" height="1" fill="#797A7A" />
<rect x="24" y="24" width="1" height="3" fill="#595652" />
<rect x="6" y="25" width="1" height="1" fill="#595652" />
<rect x="8" y="25" width="1" height="2" fill="#595652" />
<rect x="9" y="25" width="1" height="1" fill="#797A7A" />
<rect x="11" y="25" width="3" height="1" fill="#696A6A" />
<rect x="22" y="25" width="1" height="1" fill="#797A7A" />
<rect x="23" y="25" width="1" height="2" fill="#595652" />
<rect x="25" y="25" width="1" height="1" fill="#595652" />
<rect x="13" y="26" width="1" height="1" fill="#797A7A" />
<rect x="16" y="26" width="1" height="1" fill="#626363" />
<rect x="17" y="26" width="2" height="1" fill="#696A6A" />
<rect x="14" y="27" width="4" height="1" fill="#797A7A" />
<rect x="14" y="28" width="4" height="2" fill="#595652" />
</svg>