<?xml version="1.0" encoding="UTF-8" ?>
<svg version="1.1" width="32" height="32" xmlns="http://www.w3.org/2000/svg" shape-rendering="crispEdges">
<rect x="15" y="1" width="2" height="3" fill="#AC3232" />
<rect x="14" y="2" width="1" height="3" fill="#AC3232" />
<rect x="17" y="2" width="1" height="2" fill="#AC3232" />
<rect x="13" y="3" width="1" height="5" fill="#AC3232" />
<rect x="18" y="3" width="1" height="1" fill="#AC3232" />
<rect x="12" y="4" width="1" height="2" fill="#AC3232" />
<rect x="15" y="4" width="2" height="3" fill="#A12F2F" />
<rect x="17" y="4" width="1" height="1" fill="#D95763" />
<rect x="18" y="4" width="1" height="1" fill="#A12F2F" />
<rect x="19" y="4" width="1" height="7" fill="#AC3232" />
<rect x="11" y="5" width="1" height="2" fill="#AC3232" />
<rect x="14" y="5" width="1" height="1" fill="#D95763" />
<rect x="17" y="5" width="2" height="1" fill="#AC3232" />
<rect x="20" y="5" width="1" height="5" fill="#AC3232" />
<rect x="10" y="6" width="1" height="3" fill="#AC3232" />
<rect x="12" y="6" width="1" height="1" fill="#A12F2F" />
<rect x="14" y="6" width="1" height="2" fill="#AC3232" />
<rect x="17" y="6" width="1" height="3" fill="#AC3232" />
<rect x="18" y="6" width="1" height="1" fill="#A12F2F" />
<rect x="21" y="6" width="1" height="2" fill="#AC3232" />
<rect x="9" y="7" width="1" height="5" fill="#AC3232" />
<rect x="11" y="7" width="1" height="1" fill="#D95763" />
<rect x="12" y="7" width="1" height="2" fill="#AC3232" />
<rect x="15" y="7" width="1" height="1" fill="#A12F2F" />
<rect x="16" y="7" width="1" height="1" fill="#AC3232" />
<rect x="18" y="7" width="1" height="1" fill="#D95763" />
<rect x="22" y="7" width="1" height="7" fill="#AC3232" />
<rect x="8" y="8" width="1" height="2" fill="#AC3232" />
<rect x="11" y="8" width="1" height="3" fill="#AC3232" />
<rect x="13" y="8" width="2" height="1" fill="#A12F2F" />
<rect x="15" y="8" width="1" height="3" fill="#AC3232" />
<rect x="16" y="8" width="1" height="1" fill="#D95763" />
<rect x="18" y="8" width="1" height="2" fill="#AC3232" />
<rect x="21" y="8" width="1" height="1" fill="#A12F2F" />
<rect x="23" y="8" width="1" height="2" fill="#AC3232" />
<rect x="7" y="9" width="1" height="2" fill="#AC3232" />
<rect x="10" y="9" width="1" height="1" fill="#A12F2F" />
<rect x="12" y="9" width="1" height="1" fill="#A12F2F" />
<rect x="13" y="9" width="2" height="1" fill="#AC3232" />
<rect x="16" y="9" width="1" height="5" fill="#AC3232" />
<rect x="17" y="9" width="1" height="1" fill="#A12F2F" />
<rect x="21" y="9" width="1" height="5" fill="#AC3232" />
<rect x="24" y="9" width="1" height="3" fill="#AC3232" />
<rect x="6" y="10" width="1" height="3" fill="#AC3232" />
<rect x="8" y="10" width="1" height="1" fill="#A12F2F" />
<rect x="10" y="10" width="1" height="1" fill="#AC3232" />
<rect x="12" y="10" width="2" height="2" fill="#AC3232" />
<rect x="14" y="10" width="1" height="1" fill="#D95763" />
<rect x="17" y="10" width="1" height="2" fill="#AC3232" />
<rect x="18" y="10" width="1" height="1" fill="#D95763" />
<rect x="20" y="10" width="1" height="1" fill="#A12F2F" />
<rect x="23" y="10" width="1" height="1" fill="#D95763" />
<rect x="25" y="10" width="1" height="4" fill="#AC3232" />
<rect x="5" y="11" width="1" height="1" fill="#A12F2F" />
<rect x="7" y="11" width="1" height="1" fill="#D95763" />
<rect x="8" y="11" width="1" height="3" fill="#AC3232" />
<rect x="10" y="11" width="1" height="2" fill="#A12F2F" />
<rect x="11" y="11" width="1" height="1" fill="#D95763" />
<rect x="14" y="11" width="2" height="1" fill="#A12F2F" />
<rect x="18" y="11" width="1" height="3" fill="#AC3232" />
<rect x="19" y="11" width="1" height="2" fill="#A12F2F" />
<rect x="20" y="11" width="1" height="1" fill="#D95763" />
<rect x="23" y="11" width="1" height="2" fill="#AC3232" />
<rect x="26" y="11" width="1" height="4" fill="#AC3232" />
<rect x="4" y="12" width="2" height="3" fill="#AC3232" />
<rect x="7" y="12" width="1" height="1" fill="#A12F2F" />
<rect x="9" y="12" width="1" height="1" fill="#A12F2F" />
<rect x="11" y="12" width="2" height="2" fill="#AC3232" />
<rect x="13" y="12" width="2" height="1" fill="#A12F2F" />
<rect x="15" y="12" width="1" height="1" fill="#AC3232" />
<rect x="17" y="12" width="1" height="2" fill="#A12F2F" />
<rect x="20" y="12" width="1" height="2" fill="#AC3232" />
<rect x="24" y="12" width="1" height="1" fill="#A12F2F" />
<rect x="27" y="12" width="1" height="3" fill="#AC3232" />
<rect x="3" y="13" width="1" height="2" fill="#AC3232" />
<rect x="6" y="13" width="1" height="1" fill="#A12F2F" />
<rect x="7" y="13" width="1" height="1" fill="#AC3232" />
<rect x="9" y="13" width="2" height="1" fill="#AC3232" />
<rect x="13" y="13" width="1" height="1" fill="#AC3232" />
<rect x="14" y="13" width="1" height="1" fill="#A12F2F" />
<rect x="15" y="13" width="1" height="1" fill="#D95763" />
<rect x="19" y="13" width="1" height="1" fill="#AC3232" />
<rect x="23" y="13" width="1" height="1" fill="#A12F2F" />
<rect x="24" y="13" width="1" height="1" fill="#AC3232" />
<rect x="28" y="13" width="1" height="2" fill="#AC3232" />
<rect x="2" y="14" width="1" height="1" fill="#A12F2F" />
<rect x="6" y="14" width="20" height="1" fill="#9E2E2E" />
<rect x="29" y="14" width="1" height="1" fill="#AC3232" />
<rect x="6" y="15" width="20" height="1" fill="#D9A066" />
<rect x="6" y="16" width="1" height="6" fill="#D9A066" />
<rect x="7" y="16" width="1" height="3" fill="#D9AA7C" />
<rect x="8" y="16" width="4" height="3" fill="#D9A066" />
<rect x="12" y="16" width="2" height="1" fill="#D9AA7C" />
<rect x="14" y="16" width="1" height="6" fill="#D9A066" />
<rect x="15" y="16" width="1" height="1" fill="#D9AA7C" />
<rect x="16" y="16" width="4" height="2" fill="#D9A066" />
<rect x="20" y="16" width="1" height="1" fill="#D9AA7C" />
<rect x="21" y="16" width="4" height="2" fill="#D9A066" />
<rect x="25" y="16" width="1" height="1" fill="#D9AA7C" />
<rect x="12" y="17" width="2" height="1" fill="#D9A066" />
<rect x="15" y="17" width="1" height="13" fill="#D9A066" />
<rect x="20" y="17" width="1" height="6" fill="#D9A066" />
<rect x="25" y="17" width="1" height="6" fill="#D9A066" />
<rect x="12" y="18" width="2" height="1" fill="#D9AA7C" />
<rect x="16" y="18" width="3" height="3" fill="#9BADB7" />
<rect x="19" y="18" width="1" height="12" fill="#D9A066" />
<rect x="21" y="18" width="3" height="3" fill="#9BADB7" />
<rect x="24" y="18" width="1" height="2" fill="#D9A066" />
<rect x="7" y="19" width="4" height="1" fill="#D9A066" />
<rect x="11" y="19" width="2" height="1" fill="#D9AA7C" />
<rect x="13" y="19" width="1" height="11" fill="#D9A066" />
<rect x="7" y="20" width="2" height="2" fill="#D9A066" />
<rect x="9" y="20" width="1" height="1" fill="#D9AA7C" />
<rect x="10" y="20" width="3" height="3" fill="#D9A066" />
<rect x="24" y="20" width="1" height="1" fill="#D9A072" />
<rect x="9" y="21" width="1" height="3" fill="#D9A066" />
<rect x="16" y="21" width="3" height="1" fill="#696A6A" />
<rect x="21" y="21" width="3" height="1" fill="#696A6A" />
<rect x="24" y="21" width="1" height="9" fill="#D9A066" />
<rect x="6" y="22" width="2" height="1" fill="#D9AA7C" />
<rect x="8" y="22" width="1" height="2" fill="#D9A066" />
<rect x="14" y="22" width="1" height="1" fill="#D9AA7C" />
<rect x="16" y="22" width="3" height="2" fill="#D9A066" />
<rect x="21" y="22" width="3" height="2" fill="#D9A066" />
<rect x="6" y="23" width="2" height="4" fill="#D9A066" />
<rect x="10" y="23" width="1" height="1" fill="#D9A066" />
<rect x="11" y="23" width="1" height="1" fill="#D9AA7C" />
<rect x="12" y="23" width="1" height="1" fill="#D9A066" />
<rect x="14" y="23" width="1" height="1" fill="#D9A066" />
<rect x="20" y="23" width="1" height="1" fill="#D9AA7C" />
<rect x="25" y="23" width="1" height="1" fill="#D9A072" />
<rect x="8" y="24" width="5" height="1" fill="#222034" />
<rect x="14" y="24" width="1" height="1" fill="#D9AA7C" />
<rect x="16" y="24" width="3" height="4" fill="#9BADB7" />
<rect x="20" y="24" width="1" height="6" fill="#D9A066" />
<rect x="21" y="24" width="3" height="4" fill="#9BADB7" />
<rect x="25" y="24" width="1" height="3" fill="#D9A066" />
<rect x="8" y="25" width="1" height="7" fill="#222034" />
<rect x="9" y="25" width="3" height="7" fill="#323C39" />
<rect x="12" y="25" width="1" height="7" fill="#222034" />
<rect x="14" y="25" width="1" height="3" fill="#D9A066" />
<rect x="6" y="27" width="1" height="1" fill="#D9AA7C" />
<rect x="7" y="27" width="1" height="3" fill="#D9A066" />
<rect x="25" y="27" width="1" height="1" fill="#D9AA7C" />
<rect x="6" y="28" width="1" height="2" fill="#D9A066" />
<rect x="14" y="28" width="1" height="1" fill="#D9AA7C" />
<rect x="16" y="28" width="3" height="1" fill="#696A6A" />
<rect x="21" y="28" width="3" height="1" fill="#696A6A" />
<rect x="25" y="28" width="1" height="2" fill="#D9A066" />
<rect x="14" y="29" width="1" height="1" fill="#D9A066" />
<rect x="16" y="29" width="3" height="1" fill="#D9A066" />
<rect x="21" y="29" width="3" height="1" fill="#D9A066" />
<rect x="6" y="30" width="1" height="1" fill="#595652" />
<rect x="7" y="30" width="1" height="1" fill="#847E87" />
<rect x="13" y="30" width="1" height="1" fill="#595652" />
<rect x="14" y="30" width="1" height="1" fill="#847E87" />
<rect x="15" y="30" width="3" height="1" fill="#595652" />
<rect x="18" y="30" width="1" height="2" fill="#847E87" />
<rect x="19" y="30" width="1" height="1" fill="#595652" />
<rect x="20" y="30" width="1" height="1" fill="#847E87" />
<rect x="21" y="30" width="1" height="1" fill="#595652" />
<rect x="22" y="30" width="1" height="1" fill="#847E87" />
<rect x="23" y="30" width="2" height="1" fill="#595652" />
<rect x="25" y="30" width="1" height="1" fill="#847E87" />
<rect x="6" y="31" width="1" height="1" fill="#847E87" />
<rect x="7" y="31" width="1" height="1" fill="#696A6A" />
<rect x="13" y="31" width="1" height="1" fill="#847E87" />
<rect x="14" y="31" width="1" height="1" fill="#696A6A" />
<rect x="15" y="31" width="2" height="1" fill="#595652" />
<rect x="17" y="31" width="1" height="1" fill="#847E87" />
<rect x="19" y="31" width="1" height="1" fill="#696A6A" />
<rect x="20" y="31" width="1" height="1" fill="#595652" />
<rect x="21" y="31" width="1" height="1" fill="#847E87" />
<rect x="22" y="31" width="2" height="1" fill="#595652" />
<rect x="24" y="31" width="1" height="1" fill="#696A6A" />
<rect x="25" y="31" width="1" height="1" fill="#595652" />
</svg>